<?xml version="1.0" encoding="UTF-8" standalone="no"?>
<svg
   id="Illusion"
   width="400"
   height="400"
   viewBox="0 0 400 400"
   version="1.1"
   sodipodi:docname="Hering.svg"
   inkscape:version="1.4 (86a8ad7, 2024-10-11)"
   xmlns:inkscape="http://www.inkscape.org/namespaces/inkscape"
   xmlns:sodipodi="http://sodipodi.sourceforge.net/DTD/sodipodi-0.dtd"
   xmlns="http://www.w3.org/2000/svg"
   xmlns:svg="http://www.w3.org/2000/svg">
  <sodipodi:namedview
     id="namedview77"
     pagecolor="#ffffff"
     bordercolor="#000000"
     borderopacity="0.25"
     inkscape:showpageshadow="2"
     inkscape:pageopacity="0.0"
     inkscape:pagecheckerboard="0"
     inkscape:deskcolor="#d1d1d1"
     showgrid="false"
     inkscape:zoom="2.9175"
     inkscape:cx="200.17138"
     inkscape:cy="200"
     inkscape:window-width="3440"
     inkscape:window-height="1369"
     inkscape:window-x="-8"
     inkscape:window-y="-8"
     inkscape:window-maximized="1"
     inkscape:current-layer="Illusion" />
  <defs
     id="defs1">
    <style
       id="style1">
      .cls-1 {
        stroke: #000;
      }

      .cls-1, .cls-2 {
        fill: none;
        stroke-miterlimit: 10;
      }

      .cls-3 {
        fill: #fff;
      }

      .cls-2 {
        stroke: #f0f;
        stroke-width: 3px;
      }
    </style>
  </defs>
  <g
     id="Strahlenkranz">
    <line
       class="cls-1"
       x1="200.5"
       y1="200"
       x2="200.5"
       y2="395"
       id="line1" />
    <line
       class="cls-1"
       x1="200.5"
       y1="200"
       x2="216.82"
       y2="394.32"
       id="line2" />
    <line
       class="cls-1"
       x1="200.5"
       y1="200"
       x2="233.02"
       y2="392.27"
       id="line3" />
    <line
       class="cls-1"
       x1="200.5"
       y1="200"
       x2="248.99"
       y2="388.87"
       id="line4" />
    <line
       class="cls-1"
       x1="200.5"
       y1="200"
       x2="264.63"
       y2="384.15"
       id="line5" />
    <line
       class="cls-1"
       x1="200.5"
       y1="200"
       x2="279.81"
       y2="378.14"
       id="line6" />
    <line
       class="cls-1"
       x1="200.5"
       y1="200"
       x2="294.44"
       y2="370.88"
       id="line7" />
    <line
       class="cls-1"
       x1="200.5"
       y1="200"
       x2="308.41"
       y2="362.42"
       id="line8" />
    <line
       class="cls-1"
       x1="200.5"
       y1="200"
       x2="321.62"
       y2="352.82"
       id="line9" />
    <line
       class="cls-1"
       x1="200.5"
       y1="200"
       x2="333.99"
       y2="342.15"
       id="line10" />
    <line
       class="cls-1"
       x1="200.5"
       y1="200"
       x2="345.41"
       y2="330.48"
       id="line11" />
    <line
       class="cls-1"
       x1="200.5"
       y1="200"
       x2="355.82"
       y2="317.9"
       id="line12" />
    <line
       class="cls-1"
       x1="200.5"
       y1="200"
       x2="365.14"
       y2="304.49"
       id="line13" />
    <line
       class="cls-1"
       x1="200.5"
       y1="200"
       x2="373.31"
       y2="290.34"
       id="line14" />
    <line
       class="cls-1"
       x1="200.5"
       y1="200"
       x2="380.26"
       y2="275.57"
       id="line15" />
    <line
       class="cls-1"
       x1="200.5"
       y1="200"
       x2="385.96"
       y2="260.26"
       id="line16" />
    <line
       class="cls-1"
       x1="200.5"
       y1="200"
       x2="390.35"
       y2="244.53"
       id="line17" />
    <line
       class="cls-1"
       x1="200.5"
       y1="200"
       x2="393.41"
       y2="228.49"
       id="line18" />
    <line
       class="cls-1"
       x1="200.5"
       y1="200"
       x2="395.12"
       y2="212.24"
       id="line19" />
    <line
       class="cls-1"
       x1="200.5"
       y1="200"
       x2="395.46"
       y2="195.92"
       id="line20" />
    <line
       class="cls-1"
       x1="200.5"
       y1="200"
       x2="394.43"
       y2="179.62"
       id="line21" />
    <line
       class="cls-1"
       x1="200.5"
       y1="200"
       x2="392.05"
       y2="163.46"
       id="line22" />
    <line
       class="cls-1"
       x1="200.5"
       y1="200"
       x2="388.32"
       y2="147.56"
       id="line23" />
    <line
       class="cls-1"
       x1="200.5"
       y1="200"
       x2="383.27"
       y2="132.03"
       id="line24" />
    <line
       class="cls-1"
       x1="200.5"
       y1="200"
       x2="376.94"
       y2="116.97"
       id="line25" />
    <line
       class="cls-1"
       x1="200.5"
       y1="200"
       x2="369.37"
       y2="102.5"
       id="line26" />
    <line
       class="cls-1"
       x1="200.5"
       y1="200"
       x2="360.62"
       y2="88.71"
       id="line27" />
    <line
       class="cls-1"
       x1="200.5"
       y1="200"
       x2="350.75"
       y2="75.7"
       id="line28" />
    <line
       class="cls-1"
       x1="200.5"
       y1="200"
       x2="339.82"
       y2="63.57"
       id="line29" />
    <line
       class="cls-1"
       x1="200.5"
       y1="200"
       x2="327.92"
       y2="52.39"
       id="line30" />
    <line
       class="cls-1"
       x1="200.5"
       y1="200"
       x2="315.12"
       y2="42.24"
       id="line31" />
    <line
       class="cls-1"
       x1="200.5"
       y1="200"
       x2="301.52"
       y2="33.2"
       id="line32" />
    <line
       class="cls-1"
       x1="200.5"
       y1="200"
       x2="287.2"
       y2="25.34"
       id="line33" />
    <line
       class="cls-1"
       x1="200.5"
       y1="200"
       x2="272.28"
       y2="18.69"
       id="line34" />
    <line
       class="cls-1"
       x1="200.5"
       y1="200"
       x2="256.86"
       y2="13.32"
       id="line35" />
    <line
       class="cls-1"
       x1="200.5"
       y1="200"
       x2="241.04"
       y2="9.26"
       id="line36" />
    <line
       class="cls-1"
       x1="200.5"
       y1="200"
       x2="224.94"
       y2="6.54"
       id="line37" />
    <line
       class="cls-1"
       x1="200.5"
       y1="200"
       x2="208.67"
       y2="5.17"
       id="line38" />
    <line
       class="cls-1"
       x1="200.5"
       y1="200"
       x2="192.33"
       y2="5.17"
       id="line39" />
    <line
       class="cls-1"
       x1="200.5"
       y1="200"
       x2="176.06"
       y2="6.54"
       id="line40" />
    <line
       class="cls-1"
       x1="200.5"
       y1="200"
       x2="159.96"
       y2="9.26"
       id="line41" />
    <line
       class="cls-1"
       x1="200.5"
       y1="200"
       x2="144.14"
       y2="13.32"
       id="line42" />
    <line
       class="cls-1"
       x1="200.5"
       y1="200"
       x2="128.72"
       y2="18.69"
       id="line43" />
    <line
       class="cls-1"
       x1="200.5"
       y1="200"
       x2="113.8"
       y2="25.34"
       id="line44" />
    <line
       class="cls-1"
       x1="200.5"
       y1="200"
       x2="99.48"
       y2="33.2"
       id="line45" />
    <line
       class="cls-1"
       x1="200.5"
       y1="200"
       x2="85.88"
       y2="42.24"
       id="line46" />
    <line
       class="cls-1"
       x1="200.5"
       y1="200"
       x2="73.08"
       y2="52.39"
       id="line47" />
    <line
       class="cls-1"
       x1="200.5"
       y1="200"
       x2="61.18"
       y2="63.57"
       id="line48" />
    <line
       class="cls-1"
       x1="200.5"
       y1="200"
       x2="50.25"
       y2="75.7"
       id="line49" />
    <line
       class="cls-1"
       x1="200.5"
       y1="200"
       x2="40.38"
       y2="88.71"
       id="line50" />
    <line
       class="cls-1"
       x1="200.5"
       y1="200"
       x2="31.63"
       y2="102.5"
       id="line51" />
    <line
       class="cls-1"
       x1="200.5"
       y1="200"
       x2="24.06"
       y2="116.97"
       id="line52" />
    <line
       class="cls-1"
       x1="200.5"
       y1="200"
       x2="17.73"
       y2="132.03"
       id="line53" />
    <line
       class="cls-1"
       x1="200.5"
       y1="200"
       x2="12.68"
       y2="147.56"
       id="line54" />
    <line
       class="cls-1"
       x1="200.5"
       y1="200"
       x2="8.95"
       y2="163.46"
       id="line55" />
    <line
       class="cls-1"
       x1="200.5"
       y1="200"
       x2="6.57"
       y2="179.62"
       id="line56" />
    <line
       class="cls-1"
       x1="200.5"
       y1="200"
       x2="5.54"
       y2="195.92"
       id="line57" />
    <line
       class="cls-1"
       x1="200.5"
       y1="200"
       x2="5.88"
       y2="212.24"
       id="line58" />
    <line
       class="cls-1"
       x1="200.5"
       y1="200"
       x2="7.59"
       y2="228.49"
       id="line59" />
    <line
       class="cls-1"
       x1="200.5"
       y1="200"
       x2="10.65"
       y2="244.53"
       id="line60" />
    <line
       class="cls-1"
       x1="200.5"
       y1="200"
       x2="15.04"
       y2="260.26"
       id="line61" />
    <line
       class="cls-1"
       x1="200.5"
       y1="200"
       x2="20.74"
       y2="275.57"
       id="line62" />
    <line
       class="cls-1"
       x1="200.5"
       y1="200"
       x2="27.69"
       y2="290.34"
       id="line63" />
    <line
       class="cls-1"
       x1="200.5"
       y1="200"
       x2="35.86"
       y2="304.49"
       id="line64" />
    <line
       class="cls-1"
       x1="200.5"
       y1="200"
       x2="45.18"
       y2="317.9"
       id="line65" />
    <line
       class="cls-1"
       x1="200.5"
       y1="200"
       x2="55.59"
       y2="330.48"
       id="line66" />
    <line
       class="cls-1"
       x1="200.5"
       y1="200"
       x2="67.01"
       y2="342.15"
       id="line67" />
    <line
       class="cls-1"
       x1="200.5"
       y1="200"
       x2="79.38"
       y2="352.82"
       id="line68" />
    <line
       class="cls-1"
       x1="200.5"
       y1="200"
       x2="92.59"
       y2="362.42"
       id="line69" />
    <line
       class="cls-1"
       x1="200.5"
       y1="200"
       x2="106.56"
       y2="370.88"
       id="line70" />
    <line
       class="cls-1"
       x1="200.5"
       y1="200"
       x2="121.19"
       y2="378.14"
       id="line71" />
    <line
       class="cls-1"
       x1="200.5"
       y1="200"
       x2="136.37"
       y2="384.15"
       id="line72" />
    <line
       class="cls-1"
       x1="200.5"
       y1="200"
       x2="152.01"
       y2="388.87"
       id="line73" />
    <line
       class="cls-1"
       x1="200.5"
       y1="200"
       x2="167.98"
       y2="392.27"
       id="line74" />
    <line
       class="cls-1"
       x1="200.5"
       y1="200"
       x2="184.18"
       y2="394.32"
       id="line75" />
  </g>
  <g
     id="Hide"
     style="display:inline">
    <rect
       class="cls-3"
       width="400"
       height="400"
       id="rect75"
       x="0"
       y="0"
       style="opacity:0.00000001" />
  </g>
  <g
     id="Linien">
    <line
       class="cls-2"
       x1="9.78"
       y1="163.62"
       x2="392.05"
       y2="163.62"
       id="line76" />
    <line
       class="cls-2"
       x1="6.51"
       y1="230.56"
       x2="388.77"
       y2="230.56"
       id="line77" />
  </g>
</svg>
